<?xml version="1.0" standalone="no"?><!DOCTYPE svg PUBLIC "-//W3C//DTD SVG 1.1//EN" "http://www.w3.org/Graphics/SVG/1.1/DTD/svg11.dtd"><svg t="1617250305895" class="icon" viewBox="0 0 1024 1024" version="1.1" xmlns="http://www.w3.org/2000/svg" p-id="1172" xmlns:xlink="http://www.w3.org/1999/xlink" width="200" height="200"><defs><style type="text/css"></style></defs><path d="M512 0C276.4 0 85.3 176.6 85.3 394.4c0 315.2 297.6 519.4 395.7 617.1 8.4 8.4 19.7 12.5 30.9 12.5 11.3 0 22.5-4.2 30.9-12.5 98.1-97.7 395.7-310.2 395.7-617.1C938.7 176.6 747.6 0 512 0z m30.3 895.9c-10.8 9.7-21 18.8-30.4 27.4-10.3-9.4-21.5-19.3-33.6-29.9-115-101.7-307.6-271.9-307.6-499 0-170.4 153.1-309 341.3-309 188.2 0 341.3 138.6 341.3 309 0 222.5-194.7 397.2-311 501.5z" p-id="1173" fill="#1afa29"></path><path d="M512 282.3c-87 0-157.5 70.5-157.5 157.5S425 597.3 512 597.3s157.5-70.5 157.5-157.5S599 282.3 512 282.3z m0 229.7c-39.8 0-72.2-32.4-72.2-72.2 0-39.8 32.4-72.2 72.2-72.2 39.8 0 72.2 32.4 72.2 72.2 0 39.8-32.4 72.2-72.2 72.2z" p-id="1174" fill="#1afa29"></path></svg>